<svg width="253" height="146" viewBox="0 0 253 146" fill="none" xmlns="http://www.w3.org/2000/svg">
<rect x="-2.98023e-08" y="0.5" width="145" height="145" rx="43.5" transform="matrix(0.866025 0.5 -0.866025 0.5 126.872 0.25)" fill="white"/>
<path d="M115.33 66C115.33 65.219 116.426 64.5858 117.779 64.5858L138.564 64.5858C139.213 64.5858 139.836 64.7348 140.296 65C140.755 65.2652 141.013 65.6249 141.013 66L141.013 78C141.013 78.781 139.917 79.4142 138.564 79.4142C137.211 79.4142 136.114 78.781 136.114 78L136.114 69.4142L116.047 81C115.091 81.5523 113.54 81.5523 112.583 81C111.626 80.4477 111.626 79.5523 112.583 79L132.65 67.4142L117.779 67.4142C116.426 67.4142 115.33 66.781 115.33 66Z" fill="#142251"/>
<rect x="-2.98023e-08" y="0.5" width="145" height="145" rx="43.5" transform="matrix(0.866025 0.5 -0.866025 0.5 126.872 0.25)" stroke="#142251"/>
</svg>
