<svg width="329" height="376" viewBox="0 0 329 376" fill="none" xmlns="http://www.w3.org/2000/svg">
<path d="M0 93.8709L164.274 187.742L328.548 93.8709L164.274 0L0 93.8709Z" fill="#E4E7F1"/>
<path d="M0 281.613V93.8709L164.274 187.742V375.483L0 281.613Z" fill="#E4E7F1"/>
<path d="M164.274 187.742V375.483L328.548 281.613V93.8709L164.274 187.742Z" fill="#E4E7F1"/>
<path d="M164.274 187.742V375.483L328.548 281.613V93.8709L164.274 187.742Z" fill="#E4E7F1"/>
<path d="M164.274 187.742V375.483L328.548 281.613V93.8709L164.274 187.742Z" fill="#E4E7F1"/>
<path d="M164.274 187.742V375.483L328.548 281.613V93.8709L164.274 187.742Z" fill="#E4E7F1"/>
<g filter="url(#filter0_i_0_1315)">
<path d="M0 94L164.5 188L329 94L164.5 0L0 94Z" fill="#E4E7F1"/>
<path d="M0 282V94L164.5 188V376L0 282Z" fill="#E4E7F1"/>
<path d="M164.5 188V376L329 282V94L164.5 188Z" fill="#E4E7F1"/>
<path d="M164.5 188V376L329 282V94L164.5 188Z" fill="#E4E7F1"/>
<path d="M164.5 188V376L329 282V94L164.5 188Z" fill="#E4E7F1"/>
<path d="M164.5 188V376L329 282V94L164.5 188Z" fill="#E4E7F1"/>
</g>
<g filter="url(#filter1_i_0_1315)">
<path d="M0 94L164.5 188L329 94L164.5 0L0 94Z" fill="#AFB4C4"/>
<path d="M0 94L164.5 188L329 94L164.5 0L0 94Z" fill="white" fill-opacity="0.4"/>
<path d="M0 282V94L164.5 188V376L0 282Z" fill="#AFB4C4"/>
<path d="M0 282V94L164.5 188V376L0 282Z" fill="white" fill-opacity="0.4"/>
</g>
<g filter="url(#filter2_i_0_1315)">
<path d="M0 94L164.5 188L329 94L164.5 0L0 94Z" fill="#F2F3F8"/>
</g>
<defs>
<filter id="filter0_i_0_1315" x="0" y="0" width="329" height="376" filterUnits="userSpaceOnUse" color-interpolation-filters="sRGB">
<feFlood flood-opacity="0" result="BackgroundImageFix"/>
<feBlend mode="normal" in="SourceGraphic" in2="BackgroundImageFix" result="shape"/>
<feColorMatrix in="SourceAlpha" type="matrix" values="0 0 0 0 0 0 0 0 0 0 0 0 0 0 0 0 0 0 127 0" result="hardAlpha"/>
<feOffset/>
<feGaussianBlur stdDeviation="12"/>
<feComposite in2="hardAlpha" operator="arithmetic" k2="-1" k3="1"/>
<feColorMatrix type="matrix" values="0 0 0 0 0.811765 0 0 0 0 0.823529 0 0 0 0 0.862745 0 0 0 1 0"/>
<feBlend mode="normal" in2="shape" result="effect1_innerShadow_0_1315"/>
</filter>
<filter id="filter1_i_0_1315" x="0" y="0" width="329" height="380" filterUnits="userSpaceOnUse" color-interpolation-filters="sRGB">
<feFlood flood-opacity="0" result="BackgroundImageFix"/>
<feBlend mode="normal" in="SourceGraphic" in2="BackgroundImageFix" result="shape"/>
<feColorMatrix in="SourceAlpha" type="matrix" values="0 0 0 0 0 0 0 0 0 0 0 0 0 0 0 0 0 0 127 0" result="hardAlpha"/>
<feOffset dy="4"/>
<feGaussianBlur stdDeviation="42"/>
<feComposite in2="hardAlpha" operator="arithmetic" k2="-1" k3="1"/>
<feColorMatrix type="matrix" values="0 0 0 0 1 0 0 0 0 1 0 0 0 0 1 0 0 0 1 0"/>
<feBlend mode="normal" in2="shape" result="effect1_innerShadow_0_1315"/>
</filter>
<filter id="filter2_i_0_1315" x="0" y="0" width="329" height="192" filterUnits="userSpaceOnUse" color-interpolation-filters="sRGB">
<feFlood flood-opacity="0" result="BackgroundImageFix"/>
<feBlend mode="normal" in="SourceGraphic" in2="BackgroundImageFix" result="shape"/>
<feColorMatrix in="SourceAlpha" type="matrix" values="0 0 0 0 0 0 0 0 0 0 0 0 0 0 0 0 0 0 127 0" result="hardAlpha"/>
<feOffset dy="4"/>
<feGaussianBlur stdDeviation="11"/>
<feComposite in2="hardAlpha" operator="arithmetic" k2="-1" k3="1"/>
<feColorMatrix type="matrix" values="0 0 0 0 1 0 0 0 0 1 0 0 0 0 1 0 0 0 0.25 0"/>
<feBlend mode="normal" in2="shape" result="effect1_innerShadow_0_1315"/>
</filter>
</defs>
</svg>
