<svg width="254" height="187" viewBox="0 0 254 187" fill="none" xmlns="http://www.w3.org/2000/svg">
<rect x="-2.98023e-08" y="0.5" width="145" height="145" rx="43.5" transform="matrix(0.866025 0.5 -0.866025 0.5 127.326 41.25)" fill="white"/>
<g clip-path="url(#clip0_1867_67)">
<path d="M135.553 101C136.509 100.448 138.06 100.448 139.017 101L149.409 107C150.366 107.552 150.366 108.448 149.409 109L152.873 111C154.787 112.105 154.787 113.895 152.873 115L126.893 130C124.979 131.105 121.878 131.105 119.964 130L99.1798 118C97.2666 116.895 97.2666 115.105 99.1798 114L125.161 99C127.074 97.8954 130.176 97.8954 132.089 99L135.553 101ZM132.089 103L128.625 101L102.644 116L123.428 128L149.409 113L145.945 111L144.213 112C143.257 112.552 141.706 112.552 140.749 112L130.357 106C129.4 105.448 129.4 104.552 130.357 104L132.089 103ZM144.213 108L137.285 104L135.553 105L142.481 109L144.213 108ZM135.404 116.5C135.404 117.281 134.308 117.914 132.955 117.914L119.098 117.914C117.746 117.914 116.649 117.281 116.649 116.5L116.649 112.5C116.649 111.719 117.746 111.086 119.098 111.086C120.451 111.086 121.548 111.719 121.548 112.5L121.548 115.086L132.955 115.086C134.308 115.086 135.404 115.719 135.404 116.5Z" fill="#142251"/>
</g>
<rect x="-2.98023e-08" y="0.5" width="145" height="145" rx="43.5" transform="matrix(0.866025 0.5 -0.866025 0.5 127.326 41.25)" stroke="#142251"/>
<rect x="-2.98023e-08" y="0.5" width="145" height="145" rx="43.5" transform="matrix(0.866025 0.5 -0.866025 0.5 127.326 0.25)" fill="white"/>
<g clip-path="url(#clip1_1867_67)">
<path d="M135.553 60C136.509 59.4477 138.06 59.4477 139.017 60L149.409 66C150.366 66.5523 150.366 67.4477 149.409 68L152.873 70C154.787 71.1046 154.787 72.8954 152.873 74L126.893 89C124.979 90.1046 121.878 90.1046 119.964 89L99.1798 77C97.2666 75.8954 97.2666 74.1046 99.1798 73L125.161 58C127.074 56.8954 130.176 56.8954 132.089 58L135.553 60ZM132.089 62L128.625 60L102.644 75L123.428 87L149.409 72L145.945 70L144.213 71C143.257 71.5523 141.706 71.5523 140.749 71L130.357 65C129.4 64.4477 129.4 63.5523 130.357 63L132.089 62ZM144.213 67L137.285 63L135.553 64L142.481 68L144.213 67ZM135.404 75.5C135.404 76.281 134.308 76.9142 132.955 76.9142L119.098 76.9142C117.746 76.9142 116.649 76.2811 116.649 75.5L116.649 71.5C116.649 70.719 117.746 70.0858 119.098 70.0858C120.451 70.0858 121.548 70.719 121.548 71.5L121.548 74.0858L132.955 74.0858C134.308 74.0858 135.404 74.719 135.404 75.5Z" fill="#142251"/>
</g>
<rect x="-2.98023e-08" y="0.5" width="145" height="145" rx="43.5" transform="matrix(0.866025 0.5 -0.866025 0.5 127.326 0.25)" stroke="#142251"/>
<defs>
<clipPath id="clip0_1867_67">
<rect width="48" height="48" fill="white" transform="matrix(0.866025 0.5 -0.866025 0.5 126.893 90)"/>
</clipPath>
<clipPath id="clip1_1867_67">
<rect width="48" height="48" fill="white" transform="matrix(0.866025 0.5 -0.866025 0.5 126.893 49)"/>
</clipPath>
</defs>
</svg>
