<svg width="253" height="206" viewBox="0 0 253 206" fill="none" xmlns="http://www.w3.org/2000/svg">
<rect y="0.5" width="145" height="145" rx="43.5" transform="matrix(0.866025 0.5 -0.866025 0.5 126.872 60.25)" fill="#E4E7F1"/>
<g clip-path="url(#clip0_1867_68)">
<path d="M150.493 134.039C150.601 132.601 148.531 131.314 145.665 131.314L117.606 131.314C116.88 131.314 116.418 131.581 116.418 132C116.418 132.419 116.88 132.686 117.606 132.686L140.815 132.686C142.168 132.686 143.265 133.319 143.265 134.1C143.265 134.881 142.168 135.514 140.815 135.514L117.606 135.514C114.175 135.514 111.519 133.981 111.519 132C111.519 130.019 114.175 128.486 117.606 128.486L145.665 128.486C151.095 128.486 155.596 130.982 155.389 134.13C155.361 137.251 151.05 139.832 145.616 139.714L112.756 139.714C105.168 139.714 99.2216 136.281 99.2216 131.9C99.2216 127.519 105.168 124.086 112.756 124.086L140.815 124.086C142.168 124.086 143.265 124.719 143.265 125.5C143.265 126.281 142.168 126.914 140.815 126.914L112.756 126.914C107.874 126.914 104.121 129.081 104.121 131.9C104.121 134.719 107.874 136.886 112.756 136.886L145.665 136.886C145.701 136.886 145.736 136.886 145.772 136.887C148.261 136.95 150.49 135.755 150.49 134.1C150.49 134.079 150.491 134.059 150.493 134.039Z" fill="white"/>
</g>
<rect y="0.5" width="145" height="145" rx="43.5" transform="matrix(0.866025 0.5 -0.866025 0.5 126.872 60.25)" stroke="#142251"/>
<rect y="0.5" width="145" height="145" rx="43.5" transform="matrix(0.866025 0.5 -0.866025 0.5 126.872 30.25)" fill="white"/>
<g clip-path="url(#clip1_1867_68)">
<path d="M150.493 104.039C150.601 102.601 148.531 101.314 145.665 101.314L117.606 101.314C116.88 101.314 116.418 101.581 116.418 102C116.418 102.419 116.88 102.686 117.606 102.686L140.815 102.686C142.168 102.686 143.265 103.319 143.265 104.1C143.265 104.881 142.168 105.514 140.815 105.514L117.606 105.514C114.175 105.514 111.519 103.981 111.519 102C111.519 100.019 114.175 98.4857 117.606 98.4857L145.665 98.4857C151.095 98.4857 155.596 100.982 155.389 104.13C155.361 107.251 151.05 109.832 145.616 109.714L112.756 109.714C105.168 109.714 99.2216 106.281 99.2216 101.9C99.2216 97.5189 105.168 94.0857 112.756 94.0857L140.815 94.0857C142.168 94.0857 143.265 94.7189 143.265 95.5C143.265 96.281 142.168 96.9142 140.815 96.9142L112.756 96.9142C107.874 96.9142 104.121 99.081 104.121 101.9C104.121 104.719 107.874 106.886 112.756 106.886L145.665 106.886C145.701 106.886 145.736 106.886 145.772 106.887C148.261 106.95 150.49 105.755 150.49 104.1C150.49 104.079 150.491 104.059 150.493 104.039Z" fill="white"/>
</g>
<rect y="0.5" width="145" height="145" rx="43.5" transform="matrix(0.866025 0.5 -0.866025 0.5 126.872 30.25)" stroke="#142251"/>
<rect width="146" height="146" rx="44" transform="matrix(0.866025 0.5 -0.866025 0.5 126.439 0)" fill="#142251"/>
<path d="M113.982 56.1924L113.113 73.2722L166.9 72.36" stroke="white" stroke-width="5" stroke-linecap="round"/>
<defs>
<clipPath id="clip0_1867_68">
<rect width="48" height="48" fill="white" transform="matrix(0.866025 0.5 -0.866025 0.5 126.439 109)"/>
</clipPath>
<clipPath id="clip1_1867_68">
<rect width="48" height="48" fill="white" transform="matrix(0.866025 0.5 -0.866025 0.5 126.439 79)"/>
</clipPath>
</defs>
</svg>
