<svg width="320" height="380" viewBox="0 0 320 380" fill="none" xmlns="http://www.w3.org/2000/svg">
<rect x="0.5" y="0.5" width="319" height="379" rx="11.5" fill="white" stroke="#989EB1"/>
<mask id="mask0_0_2577" style="mask-type:alpha" maskUnits="userSpaceOnUse" x="16" y="22" width="286" height="279">
<rect x="16.9907" y="22.0293" width="284.602" height="278.116" rx="12" fill="#E4E7F1"/>
</mask>
<g mask="url(#mask0_0_2577)">
<path d="M141.634 193.199C152.76 213.885 179.521 259.529 193.025 282.435C197.539 290.093 195.222 299.939 187.769 304.791C179.865 309.935 169.268 307.476 164.437 299.376L111.119 209.982C106.206 201.241 109.674 190.165 118.699 185.786C127.097 181.709 137.213 184.976 141.634 193.199Z" fill="#F2F3F8"/>
<path d="M193.024 282.329L238.667 359.152L210.378 376.994L163.8 298.403C159.096 290.031 162.42 279.424 171.058 275.229C179.103 271.327 188.789 274.454 193.024 282.329Z" fill="#F2F3F8"/>
<path d="M92.3423 178.729L76.3507 183.859L60.6462 188.398L34.0325 211.979L75.5545 334.409L161.465 308.203L124.101 184.149L92.3423 178.729Z" fill="#F2F3F8"/>
<path d="M90.2502 217.154C90.5575 218.162 89.991 219.229 88.9837 219.536C87.9744 219.844 86.9089 219.275 86.6016 218.267C86.2944 217.26 86.8615 216.195 87.8708 215.887C88.8781 215.58 89.943 216.147 90.2502 217.154Z" fill="#F2F3F8"/>
<path d="M96.8419 238.765C97.1498 239.774 96.5827 240.839 95.5754 241.146C94.5661 241.454 93.5012 240.887 93.1933 239.877C92.8861 238.87 93.4532 237.805 94.4625 237.497C95.4698 237.19 96.5347 237.757 96.8419 238.765Z" fill="#F2F3F8"/>
<path d="M103.434 260.376C103.742 261.385 103.175 262.45 102.168 262.757C101.158 263.065 100.093 262.498 99.7854 261.488C99.4781 260.481 100.045 259.416 101.055 259.108C102.062 258.801 103.127 259.368 103.434 260.376Z" fill="#F2F3F8"/>
<path d="M110.025 281.984C110.333 282.994 109.766 284.058 108.759 284.366C107.749 284.674 106.685 284.106 106.377 283.097C106.069 282.09 106.637 281.025 107.646 280.717C108.653 280.41 109.718 280.977 110.025 281.984Z" fill="#F2F3F8"/>
<path d="M25.8266 228.523C28.1408 251.897 31.4109 304.707 32.9923 331.25C33.5194 340.124 40.9396 347 49.8292 346.866C59.2589 346.724 66.6791 338.768 66.1686 329.351L60.5145 225.418C59.712 215.423 50.6527 208.168 40.7223 209.571C31.4782 210.876 24.9077 219.233 25.8266 228.523Z" fill="#F2F3F8"/>
<path d="M97.921 172.862L89.8749 175.316L94.8094 181.234L97.921 172.862Z" fill="#F2F3F8"/>
<path d="M85.01 202.309C75.7165 205.144 65.8826 199.907 63.0478 190.613L52.1232 154.799L85.7809 144.532L96.7055 180.347C99.5403 189.64 94.3035 199.474 85.01 202.309Z" fill="#F2F3F8"/>
<path d="M88.5077 201.242L74.128 190.283C72.047 188.376 69.5628 186.94 66.8414 186.069L61.757 184.443C60.6803 184.1 59.4867 184.402 58.7012 185.217L55.1866 188.87C54.3761 189.713 54.1562 190.939 54.6309 191.977L60.3702 204.551C60.9333 205.792 62.735 205.814 63.3782 204.59L69.785 192.386C70.1403 191.706 71.0425 191.507 71.6477 191.974L89.219 203.574L88.5077 201.242Z" fill="#F2F3F8"/>
<path d="M88.5104 201.249L97.4546 173.555C97.7058 172.789 97.7138 172.742 98.6498 173.033L102.829 174.336C103.795 174.637 104.562 175.562 104.775 176.683L109.298 189.625C109.553 190.962 108.371 191.894 107.323 191.184L97.7092 183.921C97.1285 183.526 96.4298 183.817 96.2651 184.517L89.2217 203.581L88.5104 201.249Z" fill="#F2F3F8"/>
<path d="M83.8769 96.2294C81.0065 91.6465 75.6947 85.5642 62.7955 83.7535C41.4859 80.7604 37.2854 102.202 37.2854 102.202C32.0901 103.189 28.4518 106.232 27.5321 111.799C26.6699 117.016 31.4672 124.868 33.0519 127.627L42.8837 145.203L41.0143 126.204C40.9508 113.351 44.8539 106.918 44.8539 106.918L61.4839 100.331L89.9826 128.963L87.3372 107.683C87.0028 104.983 86.3916 102.315 85.4565 99.7601C84.9164 98.2811 84.3714 97.0194 83.8769 96.2294Z" fill="#F2F3F8"/>
<path d="M85.5765 125.788C85.5765 125.788 86.748 121.477 91.9848 121.826C97.2169 122.174 98.5736 134.216 91.9761 137.814C91.9761 137.814 89.6207 139.134 87.1167 138.011C87.1167 138.011 86.2793 129.065 85.5765 125.788Z" fill="#F2F3F8"/>
<path d="M41.6756 139.04C41.6756 139.04 37.8152 136.339 33.918 139.535C29.8655 142.864 35.3701 153.493 42.8503 152.799C42.8503 152.799 45.5412 152.58 46.9929 150.25C46.9929 150.25 42.9213 142.151 41.6756 139.04Z" fill="#F2F3F8"/>
<path d="M36.0796 143.272C36.0796 143.272 39.6083 140.759 44.165 145.699Z" fill="#F2F3F8"/>
<path d="M41.3931 143.448C41.3931 143.448 37.8121 147.04 41.6883 149.615Z" fill="#F2F3F8"/>
<path d="M86.6497 113.642C88.7466 120.51 92.4551 135.088 90.8347 144.907C89.3132 154.124 84.0699 160.436 75.5505 163.315C67.0332 166.193 59.6161 164.832 51.3134 156.003C43.0092 147.177 37.651 128.729 37.651 128.729C37.651 128.729 30.1658 104.189 54.4181 96.7917C79.9626 88.9998 86.6497 113.642 86.6497 113.642Z" fill="#F2F3F8"/>
<path d="M72.337 125.345L75.679 136.301C75.7535 136.545 75.778 136.793 75.7584 137.035C75.679 137.978 74.8332 138.676 73.8868 138.709L71.8498 138.783" fill="#F2F3F8"/>
<path d="M62.0557 129.449C62.4411 130.712 61.7304 132.05 60.4647 132.436C59.201 132.822 57.8626 132.109 57.4771 130.845C57.0916 129.582 57.8044 128.243 59.0681 127.858C60.3338 127.472 61.6702 128.185 62.0557 129.449Z" fill="#F2F3F8"/>
<path d="M62.6847 123.236L61.441 118.859L53.4166 121.465C52.4027 121.794 51.5342 122.462 50.952 123.353L47.4788 128.695L53.9704 125.607L62.6847 123.236Z" fill="#F2F3F8"/>
<path d="M77.1563 124.844C77.5417 126.107 78.8781 126.821 80.1439 126.435C81.4076 126.049 82.1204 124.711 81.7349 123.447C81.3494 122.183 80.011 121.471 78.7473 121.856C77.4815 122.242 76.7708 123.58 77.1563 124.844Z" fill="#F2F3F8"/>
<path d="M74.0304 119.772L72.6836 115.429L79.0701 113.55C79.8764 113.313 80.7563 113.434 81.5621 113.895L86.3861 116.65L80.7401 117.34L74.0304 119.772Z" fill="#F2F3F8"/>
<path d="M73.7729 143.234C72.9561 144.064 72.2131 144.618 71.3651 145.192C70.5326 145.744 69.651 146.215 68.7372 146.603C66.9166 147.394 64.9111 147.761 62.9723 147.677C62.5716 147.661 62.2613 147.322 62.2791 146.92C62.2935 146.567 62.5586 146.284 62.897 146.234L62.9227 146.23C64.6163 145.978 66.2044 145.358 67.5819 144.42C68.2748 143.957 68.9223 143.433 69.5132 142.854C70.0875 142.294 70.6833 141.608 71.0455 141.052C71.5705 140.236 72.6574 140 73.4717 140.526C74.288 141.051 74.5233 142.136 73.9982 142.952C73.9345 143.049 73.8504 143.153 73.7729 143.234Z" fill="#F2F3F8"/>
<path d="M78.254 139.011C78.7587 139.273 79.5226 139.532 80.2001 139.696C80.9038 139.867 81.624 139.967 82.3481 139.993C83.8001 140.057 85.2578 139.746 86.5951 139.063L86.6182 139.051C86.9531 138.88 87.3629 139.013 87.5319 139.348C87.6812 139.641 87.5989 139.991 87.3516 140.186C85.9917 141.277 84.2934 142.024 82.5244 142.299C81.6397 142.447 80.7419 142.501 79.8437 142.465C78.9242 142.419 78.1006 142.336 77.0833 142.064C76.2041 141.836 75.6781 140.936 75.908 140.056C76.1385 139.178 77.0363 138.651 77.9167 138.883C78.0304 138.912 78.1516 138.96 78.254 139.011Z" fill="#F2F3F8"/>
<path d="M74.419 150.379C74.419 150.379 76.9933 150.506 80.0598 148.658Z" fill="#F2F3F8"/>
<path d="M228.675 166.649C239.801 187.335 266.562 232.979 280.066 255.885C284.58 263.543 282.263 273.389 274.81 278.241C266.906 283.385 256.309 280.926 251.478 272.826L198.16 183.432C193.247 174.691 196.715 163.615 205.74 159.236C214.138 155.159 224.254 158.426 228.675 166.649Z" fill="#142251"/>
<path d="M280.065 255.778L325.708 332.602L297.419 350.444L250.841 271.853C246.137 263.481 249.46 252.874 258.099 248.679C266.144 244.777 275.83 247.904 280.065 255.778Z" fill="#142251"/>
<path d="M179.383 152.179L163.391 157.308L147.687 161.847L121.073 185.429L162.595 307.859L248.506 281.653L211.142 157.599L179.383 152.179Z" fill="#142251"/>
<path d="M177.291 190.604C177.598 191.612 177.032 192.679 176.025 192.986C175.015 193.294 173.95 192.725 173.642 191.717C173.335 190.71 173.902 189.645 174.912 189.337C175.919 189.03 176.984 189.597 177.291 190.604Z" fill="#142251"/>
<path d="M183.883 212.214C184.191 213.224 183.623 214.289 182.616 214.596C181.607 214.904 180.542 214.337 180.234 213.327C179.927 212.32 180.494 211.255 181.503 210.947C182.511 210.64 183.575 211.207 183.883 212.214Z" fill="#142251"/>
<path d="M190.475 233.826C190.783 234.835 190.216 235.9 189.208 236.207C188.199 236.515 187.134 235.948 186.826 234.938C186.519 233.931 187.086 232.866 188.095 232.558C189.103 232.251 190.167 232.818 190.475 233.826Z" fill="#142251"/>
<path d="M197.066 255.434C197.374 256.444 196.807 257.508 195.8 257.816C194.79 258.124 193.725 257.556 193.417 256.547C193.11 255.54 193.677 254.475 194.687 254.167C195.694 253.86 196.759 254.427 197.066 255.434Z" fill="#142251"/>
<path d="M203.658 277.045C203.966 278.055 203.399 279.12 202.392 279.427C201.382 279.735 200.317 279.168 200.009 278.158C199.702 277.151 200.269 276.086 201.279 275.778C202.286 275.471 203.351 276.038 203.658 277.045Z" fill="#142251"/>
<path d="M112.867 201.973C115.182 225.347 118.452 278.157 120.033 304.7C120.56 313.574 127.98 320.45 136.87 320.316C146.3 320.174 153.72 312.218 153.209 302.801L147.555 198.868C146.753 188.872 137.693 181.618 127.763 183.021C118.519 184.326 111.948 192.683 112.867 201.973Z" fill="#142251"/>
<path d="M119.973 304.611L124.978 393.83L158.409 392.846L153.193 301.638C152.424 292.066 143.748 285.119 134.237 286.461C125.384 287.714 119.092 295.714 119.973 304.611Z" fill="#142251"/>
<path d="M266.56 327.504L176.055 355.111L162.595 307.858L248.184 281.751L266.56 327.504Z" fill="#142251"/>
<path d="M184.962 146.312L176.916 148.766L181.85 154.684L184.962 146.312Z" fill="#142251"/>
<path d="M172.051 175.759C162.757 178.594 152.923 173.357 150.089 164.063L139.164 128.249L172.822 117.982L183.746 153.797C186.581 163.09 181.344 172.924 172.051 175.759Z" fill="#142251"/>
<path d="M175.548 174.692L161.169 163.733C159.088 161.825 156.604 160.39 153.882 159.519L148.798 157.893C147.721 157.55 146.527 157.852 145.742 158.667L142.227 162.32C141.417 163.163 141.197 164.389 141.672 165.427L147.411 178.001C147.974 179.242 149.776 179.264 150.419 178.04L156.826 165.836C157.181 165.156 158.083 164.957 158.688 165.424L176.26 177.024L175.548 174.692Z" fill="#142251"/>
<path d="M175.551 174.699L184.495 147.005C184.747 146.239 184.755 146.192 185.691 146.483L189.869 147.786C190.835 148.087 191.602 149.012 191.815 150.133L196.339 163.075C196.594 164.412 195.412 165.344 194.364 164.634L184.75 157.37C184.169 156.976 183.471 157.267 183.306 157.967L176.262 177.031L175.551 174.699Z" fill="#142251"/>
<path d="M170.918 69.6793C168.047 65.0965 162.735 59.0141 149.836 57.2035C128.527 54.2104 124.326 75.6524 124.326 75.6524C119.131 76.6388 115.493 79.6815 114.573 85.2491C113.711 90.4656 118.508 98.3175 120.093 101.077L129.924 118.653L128.055 99.6537C127.992 86.8012 131.895 80.3681 131.895 80.3681L148.525 73.7807L177.023 102.413L174.378 81.1331C174.044 78.4325 173.432 75.7652 172.497 73.21C171.957 71.7311 171.412 70.4693 170.918 69.6793Z" fill="#142251"/>
<path d="M172.617 99.2379C172.617 99.2379 173.789 94.9272 179.026 95.2757C184.258 95.6244 185.614 107.666 179.017 111.263C179.017 111.263 176.662 112.584 174.157 111.461C174.157 111.461 173.32 102.515 172.617 99.2379Z" fill="#142251"/>
<path d="M128.716 112.489C128.716 112.489 124.856 109.789 120.959 112.985C116.906 116.314 122.411 126.943 129.891 126.249C129.891 126.249 132.582 126.03 134.034 123.7C134.034 123.7 129.962 115.601 128.716 112.489Z" fill="#142251"/>
<path d="M123.12 116.722C123.12 116.722 126.649 114.209 131.206 119.149Z" fill="#142251"/>
<path d="M128.434 116.898C128.434 116.898 124.853 120.49 128.729 123.065Z" fill="#142251"/>
<path d="M173.69 87.0924C175.787 93.9596 179.496 108.538 177.875 118.357C176.354 127.573 171.111 133.886 162.591 136.765C154.074 139.643 146.657 138.282 138.354 129.453C130.05 120.627 124.692 102.179 124.692 102.179C124.692 102.179 117.207 77.6393 141.459 70.2416C167.003 62.4498 173.69 87.0924 173.69 87.0924Z" fill="#142251"/>
<path d="M159.378 98.7945L162.72 109.751C162.794 109.995 162.819 110.243 162.799 110.485C162.72 111.428 161.874 112.126 160.928 112.159L158.891 112.233" fill="#142251"/>
<path d="M149.096 102.899C149.482 104.162 148.771 105.5 147.505 105.886C146.242 106.272 144.903 105.559 144.518 104.295C144.132 103.032 144.845 101.693 146.109 101.308C147.375 100.922 148.711 101.635 149.096 102.899Z" fill="#142251"/>
<path d="M149.725 96.6855L148.482 92.3094L140.457 94.915C139.443 95.2443 138.575 95.9118 137.993 96.8034L134.52 102.145L141.011 99.0567L149.725 96.6855Z" fill="#142251"/>
<path d="M164.197 98.2937C164.582 99.5574 165.919 100.271 167.185 99.8847C168.448 99.4992 169.161 98.1608 168.776 96.8971C168.39 95.6334 167.052 94.9206 165.788 95.3061C164.522 95.6922 163.812 97.03 164.197 98.2937Z" fill="#142251"/>
<path d="M161.071 93.2216L159.724 88.8792L166.111 87C166.917 86.763 167.797 86.8838 168.603 87.3453L173.427 90.1L167.781 90.7901L161.071 93.2216Z" fill="#142251"/>
<path d="M160.814 116.684C159.997 117.514 159.254 118.068 158.406 118.642C157.573 119.194 156.692 119.665 155.778 120.053C153.957 120.844 151.952 121.211 150.013 121.126C149.612 121.111 149.302 120.772 149.32 120.37C149.334 120.017 149.599 119.734 149.938 119.684L149.963 119.68C151.657 119.428 153.245 118.808 154.623 117.87C155.316 117.407 155.963 116.883 156.554 116.304C157.128 115.744 157.724 115.058 158.086 114.502C158.611 113.686 159.698 113.45 160.512 113.976C161.329 114.501 161.564 115.586 161.039 116.402C160.975 116.499 160.891 116.603 160.814 116.684Z" fill="#142251"/>
<path d="M165.295 112.461C165.799 112.723 166.563 112.982 167.241 113.146C167.945 113.317 168.665 113.417 169.389 113.443C170.841 113.507 172.299 113.196 173.636 112.512L173.659 112.501C173.994 112.33 174.404 112.463 174.573 112.798C174.722 113.091 174.64 113.441 174.392 113.636C173.032 114.727 171.334 115.474 169.565 115.749C168.68 115.897 167.783 115.951 166.884 115.915C165.965 115.869 165.141 115.786 164.124 115.514C163.245 115.286 162.719 114.386 162.949 113.506C163.179 112.628 164.077 112.101 164.957 112.333C165.071 112.362 165.192 112.41 165.295 112.461Z" fill="#142251"/>
<path d="M161.46 123.829C161.46 123.829 164.034 123.956 167.101 122.108Z" fill="#142251"/>
<path d="M308.064 142.432C319.19 163.119 345.951 208.763 359.455 231.669C363.968 239.327 361.651 249.173 354.199 254.025C346.295 259.169 335.698 256.71 330.867 248.61L277.549 159.216C272.636 150.474 276.103 139.399 285.128 135.02C293.527 130.943 303.643 134.21 308.064 142.432Z" fill="#E4E7F1"/>
<path d="M258.772 127.963L242.78 133.092L227.076 137.631L200.462 161.213L241.984 283.642L327.895 257.437L290.531 133.383L258.772 127.963Z" fill="#E4E7F1"/>
<path d="M256.68 166.388C256.987 167.396 256.421 168.463 255.413 168.77C254.404 169.078 253.338 168.509 253.031 167.501C252.724 166.494 253.291 165.429 254.3 165.121C255.308 164.814 256.373 165.381 256.68 166.388Z" fill="#E4E7F1"/>
<path d="M263.271 187.998C263.579 189.008 263.012 190.073 262.005 190.38C260.996 190.688 259.931 190.121 259.623 189.111C259.316 188.104 259.883 187.039 260.892 186.731C261.899 186.424 262.964 186.991 263.271 187.998Z" fill="#E4E7F1"/>
<path d="M269.864 209.609C270.171 210.619 269.604 211.684 268.597 211.991C267.588 212.299 266.523 211.732 266.215 210.722C265.908 209.715 266.475 208.65 267.484 208.342C268.491 208.035 269.556 208.602 269.864 209.609Z" fill="#E4E7F1"/>
<path d="M276.455 231.218C276.763 232.227 276.196 233.292 275.188 233.6C274.179 233.907 273.114 233.34 272.806 232.331C272.499 231.324 273.066 230.259 274.075 229.951C275.083 229.644 276.148 230.211 276.455 231.218Z" fill="#E4E7F1"/>
<path d="M283.047 252.829C283.355 253.839 282.788 254.903 281.78 255.211C280.771 255.519 279.706 254.951 279.398 253.942C279.091 252.935 279.658 251.87 280.667 251.562C281.675 251.255 282.74 251.822 283.047 252.829Z" fill="#E4E7F1"/>
<path d="M192.256 177.757C194.57 201.131 197.841 253.941 199.422 280.484C199.949 289.358 207.369 296.234 216.259 296.1C225.688 295.958 233.109 288.002 232.598 278.585L226.944 174.652C226.142 164.656 217.082 157.402 207.152 158.805C197.908 160.11 191.337 168.467 192.256 177.757Z" fill="#E4E7F1"/>
<path d="M199.362 280.395L204.367 369.614L237.797 368.63L232.582 277.422C231.813 267.85 223.136 260.903 213.626 262.245C204.772 263.498 198.48 271.498 199.362 280.395Z" fill="#E4E7F1"/>
<path d="M345.949 303.288L255.443 330.895L241.984 283.642L327.573 257.535L345.949 303.288Z" fill="#E4E7F1"/>
<path d="M255.063 330.398L285.408 439.76C288.069 449.664 298.409 455.394 308.219 452.402C317.1 449.693 322.502 440.714 320.735 431.597L298.715 320.314C296.183 307.252 282.896 299.258 270.17 303.14C258.609 306.666 251.925 318.725 255.063 330.398Z" fill="#E4E7F1"/>
<path d="M345.623 302.774L383.432 409.859C386.753 419.563 381.371 430.088 371.563 433.08C362.68 435.789 353.186 431.354 349.564 422.803L303.776 318.77C298.586 306.518 305.148 292.47 317.875 288.588C329.435 285.062 341.712 291.337 345.623 302.774Z" fill="#E4E7F1"/>
<path d="M264.351 122.096L256.304 124.55L261.239 130.468L264.351 122.096Z" fill="#E4E7F1"/>
<path d="M251.44 151.543C242.146 154.378 232.312 149.141 229.477 139.847L218.553 104.032L252.21 93.7658L263.135 129.581C265.97 138.874 260.733 148.708 251.44 151.543Z" fill="#E4E7F1"/>
<path d="M254.937 150.476L240.558 139.517C238.477 137.609 235.992 136.174 233.271 135.303L228.187 133.677C227.11 133.334 225.916 133.636 225.131 134.451L221.616 138.104C220.806 138.947 220.586 140.173 221.06 141.211L226.8 153.785C227.363 155.026 229.165 155.048 229.808 153.824L236.215 141.62C236.57 140.94 237.472 140.741 238.077 141.208L255.649 152.808L254.937 150.476Z" fill="#E4E7F1"/>
<path d="M254.94 150.483L263.884 122.789C264.135 122.023 264.143 121.976 265.079 122.267L269.258 123.57C270.224 123.871 270.991 124.796 271.204 125.917L275.728 138.859C275.982 140.196 274.801 141.128 273.752 140.418L264.139 133.154C263.558 132.76 262.859 133.051 262.695 133.751L255.651 152.815L254.94 150.483Z" fill="#E4E7F1"/>
<path d="M250.306 45.4632C247.436 40.8804 242.124 34.7981 229.225 32.9874C207.915 29.9943 203.715 51.4364 203.715 51.4364C198.52 52.4228 194.881 55.4654 193.962 61.0331C193.099 66.2495 197.897 74.1014 199.481 76.861L209.313 94.4365L207.444 75.4376C207.38 62.5852 211.283 56.152 211.283 56.152L227.913 49.5646L256.412 78.1971L253.767 56.917C253.432 54.2164 252.821 51.5491 251.886 48.994C251.346 47.515 250.801 46.2533 250.306 45.4632Z" fill="#E4E7F1"/>
<path d="M252.006 75.0219C252.006 75.0219 253.178 70.7111 258.414 71.0597C263.646 71.4083 265.003 83.4497 258.406 87.0474C258.406 87.0474 256.05 88.3683 253.546 87.2451C253.546 87.2451 252.709 78.299 252.006 75.0219Z" fill="#E4E7F1"/>
<path d="M208.105 88.2734C208.105 88.2734 204.245 85.5731 200.348 88.7691C196.295 92.098 201.8 102.727 209.28 102.033C209.28 102.033 211.971 101.814 213.422 99.4842C213.422 99.4842 209.351 91.3848 208.105 88.2734Z" fill="#E4E7F1"/>
<path d="M202.509 92.5056C202.509 92.5056 206.038 89.9931 210.595 94.933Z" fill="#E4E7F1"/>
<path d="M207.823 92.6818C207.823 92.6818 204.242 96.2739 208.118 98.8487Z" fill="#E4E7F1"/>
<path d="M253.079 62.8763C255.176 69.7436 258.885 84.3224 257.264 94.1408C255.743 103.357 250.499 109.67 241.98 112.549C233.463 115.427 226.046 114.066 217.743 105.237C209.439 96.411 204.081 77.9625 204.081 77.9625C204.081 77.9625 196.595 53.4233 220.848 46.0256C246.392 38.2337 253.079 62.8763 253.079 62.8763Z" fill="#E4E7F1"/>
<path d="M238.767 74.5785L242.109 85.5345C242.183 85.7787 242.208 86.027 242.188 86.2688C242.109 87.2117 241.263 87.91 240.316 87.9429L238.279 88.0171" fill="#E4E7F1"/>
<path d="M228.485 78.6826C228.871 79.9463 228.16 81.2841 226.894 81.6702C225.631 82.0557 224.292 81.3429 223.907 80.0792C223.521 78.8155 224.234 77.4771 225.498 77.0916C226.763 76.7056 228.1 77.4189 228.485 78.6826Z" fill="#E4E7F1"/>
<path d="M229.114 72.4694L227.871 68.0933L219.846 70.6989C218.832 71.0282 217.964 71.6957 217.382 72.5873L213.908 77.9285L220.4 74.8406L229.114 72.4694Z" fill="#E4E7F1"/>
<path d="M243.586 74.0776C243.971 75.3413 245.308 76.0547 246.573 75.6686C247.837 75.2832 248.55 73.9447 248.164 72.681C247.779 71.4173 246.441 70.7045 245.177 71.09C243.911 71.4761 243.2 72.8139 243.586 74.0776Z" fill="#E4E7F1"/>
<path d="M240.46 69.0055L239.113 64.6631L245.5 62.7839C246.306 62.5469 247.186 62.6678 247.992 63.1293L252.816 65.8839L247.17 66.5741L240.46 69.0055Z" fill="#E4E7F1"/>
<path d="M240.202 92.4682C239.386 93.2979 238.643 93.8515 237.795 94.426C236.962 94.978 236.081 95.4493 235.167 95.837C233.346 96.6281 231.341 96.9952 229.402 96.9104C229.001 96.8947 228.691 96.5557 228.709 96.1543C228.723 95.8007 228.988 95.5175 229.327 95.4676L229.352 95.4642C231.046 95.2123 232.634 94.5922 234.011 93.6538C234.704 93.1911 235.352 92.6666 235.943 92.0882C236.517 91.5282 237.113 90.8416 237.475 90.2863C238 89.47 239.087 89.2341 239.901 89.7597C240.718 90.2848 240.953 91.3696 240.428 92.1859C240.364 92.2832 240.28 92.3867 240.202 92.4682Z" fill="#E4E7F1"/>
<path d="M244.684 88.245C245.188 88.507 245.952 88.7655 246.63 88.9303C247.333 89.1005 248.054 89.2011 248.778 89.2271C250.23 89.2913 251.687 88.9801 253.025 88.2964L253.048 88.2849C253.383 88.1138 253.792 88.2468 253.961 88.5823C254.111 88.8748 254.028 89.2247 253.781 89.4202C252.421 90.5112 250.723 91.2583 248.954 91.5332C248.069 91.6808 247.171 91.7344 246.273 91.6993C245.354 91.6527 244.53 91.5703 243.513 91.2979C242.634 91.07 242.108 90.1695 242.338 89.2898C242.568 88.412 243.466 87.8846 244.346 88.1165C244.46 88.1464 244.581 88.1939 244.684 88.245Z" fill="#E4E7F1"/>
<path d="M240.849 99.6128C240.849 99.6128 243.423 99.7395 246.489 97.8922Z" fill="#E4E7F1"/>
<rect x="17.4906" y="22.5291" width="283.602" height="277.116" rx="11.5" stroke="#989EB1"/>
</g>
</svg>
